<?xml version="1.0" ?><!DOCTYPE svg  PUBLIC '-//W3C//DTD SVG 1.0//EN'  'http://www.w3.org/TR/2001/REC-SVG-20010904/DTD/svg10.dtd'><svg enable-background="new 0 0 200 200" height="200px" id="Layer_1" version="1.0" viewBox="0 0 200 200" width="200px" xml:space="preserve" xmlns="http://www.w3.org/2000/svg" xmlns:xlink="http://www.w3.org/1999/xlink"><g id="New_Symbol"/><g id="New_Symbol_1_"/><g id="New_Symbol_1"/><g id="New_Symbol_9_2_"/><g id="New_Symbol_7"/><g id="New_Symbol_9_1_"/><g id="New_Symbol_9"/><g id="Nuevo_símbolo"/><g id="New_Symbol_10"/><g id="New_Symbol_12"/><g id="New_Symbol_14"/><g id="New_Symbol_15"/><g id="New_Symbol_16"/><g id="New_Symbol_17_1_"/><g id="New_Symbol_18"/><g id="New_Symbol_19"/><g id="New_Symbol_17"/><g><g><g><g><path d="M122.3,99.3c2.5,0,4.5,2,4.5,4.5s-2,4.5-4.5,4.5s-4.5-2-4.5-4.5S119.8,99.3,122.3,99.3 M122.3,96.8c-3.9,0-7,3.1-7,7      s3.1,7,7,7s7-3.1,7-7S126.1,96.8,122.3,96.8L122.3,96.8z"/></g></g></g><g><g><g><path d="M121.3,51.2c2.5,0,4.5,2,4.5,4.5s-2,4.5-4.5,4.5s-4.5-2-4.5-4.5S118.8,51.2,121.3,51.2 M121.3,48.7c-3.9,0-7,3.1-7,7      s3.1,7,7,7s7-3.1,7-7S125.1,48.7,121.3,48.7L121.3,48.7z"/></g></g></g><g><g><g><path d="M71.3,80.2c2.5,0,4.5,2,4.5,4.5c0,2.5-2,4.5-4.5,4.5s-4.5-2-4.5-4.5C66.8,82.2,68.8,80.2,71.3,80.2 M71.3,77.7      c-3.9,0-7,3.1-7,7s3.1,7,7,7s7-3.1,7-7S75.1,77.7,71.3,77.7L71.3,77.7z"/></g></g></g><g><g><g><path d="M89.3,120.1c2.5,0,4.5,2,4.5,4.5s-2,4.5-4.5,4.5s-4.5-2-4.5-4.5S86.8,120.1,89.3,120.1 M89.3,117.6c-3.9,0-7,3.1-7,7      s3.1,7,7,7s7-3.1,7-7S93.1,117.6,89.3,117.6L89.3,117.6z"/></g></g></g><g><g><rect height="2.5" width="21.5" x="16" y="46.4"/></g></g><g><g><rect height="2.5" width="21.5" x="16" y="74.4"/></g></g><g><g><rect height="2.5" width="21.5" x="16" y="102.4"/></g></g><g><g><rect height="2.5" width="21.5" x="16" y="130.4"/></g></g><g><g><path d="M137.1,55.9h-10.7v-2.5h10.3l10.5-6.8c0.2-0.1,0.4-0.2,0.7-0.2h35.8v2.5h-35.5l-10.5,6.8     C137.6,55.8,137.3,55.9,137.1,55.9z"/></g></g><g><g><path d="M96.9,85.9H75.6v-2.5h20.9l10.7-8.7c0.2-0.2,0.5-0.3,0.8-0.3h75.8v2.5h-75.4l-10.7,8.7C97.5,85.8,97.2,85.9,96.9,85.9z"/></g></g><g><g><path d="M183.8,132.9h-55.5c-0.2,0-0.4-0.1-0.6-0.2l-12.4-6.9H93.9v-2.5h21.7c0.2,0,0.4,0.1,0.6,0.2l12.4,6.9h55.2V132.9z"/></g></g><g><g><g><rect height="21.5" width="2.5" x="57" y="151.7"/></g></g><g><g><rect height="21.5" width="2.5" x="85" y="151.7"/></g></g><g><g><rect height="21.5" width="2.5" x="113" y="151.7"/></g></g><g><g><rect height="21.5" width="2.5" x="141" y="151.7"/></g></g></g><g><g><rect height="2.5" width="55.8" x="128.2" y="102.4"/></g></g><g><g><path d="M158.5,148.5c0,2.5-2,4.5-4.5,4.5H41c-2.5,0-4.5-2-4.5-4.5v-117c0-2.5,2-4.5,4.5-4.5h113c2.5,0,4.5,2,4.5,4.5V148.5z      M155.5,31.5c0-0.8-0.7-1.5-1.5-1.5H41c-0.8,0-1.5,0.7-1.5,1.5v117c0,0.8,0.7,1.5,1.5,1.5h113c0.8,0,1.5-0.7,1.5-1.5V31.5z"/></g></g></g></svg>